<?xml version="1.0" encoding="utf-8"?>
<!-- Generator: Adobe Illustrator 25.3.1, SVG Export Plug-In . SVG Version: 6.00 Build 0)  -->
<svg version="1.1" id="圖層_1" xmlns="http://www.w3.org/2000/svg" xmlns:xlink="http://www.w3.org/1999/xlink" x="0px" y="0px"
	 viewBox="0 0 30 30" style="enable-background:new 0 0 30 30;" xml:space="preserve">
<style type="text/css">
	.st0{fill:#FFFFFF;}
</style>
<path id="attachment-2" class="st0" d="M24.4,8.8c1.9,1.8,1.9,4.8,0.1,6.6l-7.8,7.8c-2.6,2.5-6.8,2.5-9.3-0.1
	c-2.6-2.5-2.7-6.7-0.1-9.3l5.2-5.2l1.3,1.3l-5.2,5.2c-1.8,1.9-1.8,4.8,0.1,6.6c1.8,1.9,4.8,1.9,6.6,0.1l7.8-7.8c1.1-1.1,1-3-0.1-4
	c-1.1-1-2.8-1-3.9,0l-7.8,7.8c-0.3,0.4-0.3,1,0.1,1.3c0.4,0.3,0.9,0.3,1.3,0l7.2-7.2l1.3,1.3l-7.2,7.2c-1.1,1.1-2.9,1.1-4,0
	c-1.1-1.1-1.1-2.9-0.1-4l7.8-7.8C19.6,6.9,22.6,7,24.4,8.8z"/>
</svg>
