<?xml version="1.0" encoding="utf-8"?>
<!-- Generator: Adobe Illustrator 25.3.1, SVG Export Plug-In . SVG Version: 6.00 Build 0)  -->
<svg version="1.1" id="圖層_1" xmlns="http://www.w3.org/2000/svg" xmlns:xlink="http://www.w3.org/1999/xlink" x="0px" y="0px"
	 viewBox="0 0 40 40" style="enable-background:new 0 0 40 40;" xml:space="preserve">
<style type="text/css">
	.st0{fill:#FFFFFF;}
</style>
<path id="line" class="st0" d="M20,0.8C9,0.8,0,8.2,0,17.2c0,8,7.1,14.8,16.7,16.1c0.7,0.1,1.5,0.4,1.8,1c0.2,0.6,0.2,1.2,0.1,1.8
	l-0.3,1.7c-0.1,0.5-0.4,2,1.7,1.1S31.6,32,35.8,27.2c2.9-3.2,4.2-6.4,4.2-10C40,8.2,31,0.8,20,0.8L20,0.8z M12.2,22.5h-4
	c-0.6,0-1-0.5-1-1.1v-8c0-0.6,0.5-1.1,1-1.1c0.6,0,1.1,0.5,1,1.1v6.9h2.9c0.6,0,1.1,0.5,1,1.1C13.2,22.1,12.8,22.5,12.2,22.5
	L12.2,22.5z M16.3,21.5c0,0.6-0.5,1.1-1.1,1.1s-1-0.5-1-1.1v-8c0-0.6,0.5-1.1,1-1.1c0.6,0,1,0.5,1,1.1L16.3,21.5z M25.8,21.5
	c0,0.5-0.3,0.9-0.7,1c-0.1,0-0.2,0.1-0.3,0.1c-0.3,0-0.7-0.2-0.9-0.4l-4.1-5.6v4.9c0,0.6-0.5,1-1.1,1s-1-0.5-1-1.1v-8
	c0-0.5,0.3-0.9,0.7-1c0.1,0,0.2-0.1,0.3-0.1c0.3,0,0.6,0.2,0.8,0.4l4.1,5.6v-5c0-0.6,0.5-1.1,1-1.1c0.6,0,1,0.5,1,1.1L25.8,21.5z
	 M32.3,16.4c0.6,0,1.1,0.5,1,1.1c0,0.6-0.5,1.1-1,1.1h-2.9v1.9h2.9c0.6,0,1.1,0.5,1,1.1l0,0c0,0.6-0.5,1.1-1,1.1h-4
	c-0.6,0-1-0.5-1-1.1v-8c0-0.6,0.5-1.1,1-1.1h4c0.6,0,1,0.5,1,1.1s-0.5,1.1-1,1.1l0,0h-2.9v1.9L32.3,16.4z"/>
</svg>
